<svg viewBox="13 13 170.08192 170.11920529801324" y="0" x="0" version="1.1" xmlns:xlink="http://www.w3.org/1999/xlink" xmlns="http://www.w3.org/2000/svg" style="max-height: 500px" width="170.08192" height="170.11920529801324">
  <g transform="translate(5, -535)" id="Layer_1">
    <g>
      <g>
        <path fill="#FFFFFF" d="M51.764,552.5 L133.236,552.5 C154.921,552.5 172.5,569.866 172.5,591.288 L172.5,673.712 C172.5,695.134 154.921,712.5 133.236,712.5 L51.764,712.5 C30.079,712.5 12.5,695.134 12.5,673.712 L12.5,591.288 C12.5,569.866 30.079,552.5 51.764,552.5 z"/>
        <path stroke-width="9" stroke="#619383" fill-opacity="0" d="M51.764,552.5 L133.236,552.5 C154.921,552.5 172.5,569.866 172.5,591.288 L172.5,673.712 C172.5,695.134 154.921,712.5 133.236,712.5 L51.764,712.5 C30.079,712.5 12.5,695.134 12.5,673.712 L12.5,591.288 C12.5,569.866 30.079,552.5 51.764,552.5 z"/>
      </g>
      <path stroke-linejoin="round" stroke-linecap="round" stroke-width="9" stroke="#619383" fill-opacity="0" d="M32.5,632.5 L34.265,631.071 L36.225,629.643 L37.99,628.279 L39.755,626.916 L41.52,625.617 L43.48,624.383 L45.245,623.214 L47.01,622.11 L48.775,621.136 L50.735,620.292 L52.5,619.513 L54.265,618.864 L56.225,618.279 L57.99,617.89 L59.755,617.63 L61.52,617.5 L63.48,617.5 L65.245,617.63 L67.01,617.89 L68.775,618.279 L70.735,618.864 L72.5,619.513 L74.265,620.292 L76.225,621.136 L77.99,622.11 L79.755,623.214 L81.52,624.383 L83.48,625.617 L85.245,626.916 L87.01,628.279 L88.775,629.643 L90.735,631.071 L92.5,632.5 L94.265,633.929 L96.225,635.357 L97.99,636.721 L99.755,638.084 L101.52,639.383 L103.48,640.617 L105.245,641.786 L107.01,642.89 L108.775,643.864 L110.735,644.708 L112.5,645.487 L114.265,646.136 L116.225,646.721 L117.99,647.11 L119.755,647.37 L121.52,647.5 L123.48,647.5 L125.245,647.37 L127.01,647.11 L128.775,646.721 L130.735,646.136 L132.5,645.487 L134.265,644.708 L136.225,643.864 L137.99,642.89 L139.755,641.786 L141.52,640.617 L143.48,639.383 L145.245,638.084 L147.01,636.721 L148.775,635.357 L150.735,633.929 L152.5,632.5"/>
      <path stroke-linejoin="round" stroke-linecap="round" stroke-width="9" stroke="#92B292" fill-opacity="0" d="M32.5,672.5 L34.265,671.071 L36.225,669.643 L37.99,668.279 L39.755,666.916 L41.52,665.617 L43.48,664.383 L45.245,663.214 L47.01,662.11 L48.775,661.136 L50.735,660.292 L52.5,659.513 L54.265,658.864 L56.225,658.279 L57.99,657.89 L59.755,657.63 L61.52,657.5 L63.48,657.5 L65.245,657.63 L67.01,657.89 L68.775,658.279 L70.735,658.864 L72.5,659.513 L74.265,660.292 L76.225,661.136 L77.99,662.11 L79.755,663.214 L81.52,664.383 L83.48,665.617 L85.245,666.916 L87.01,668.279 L88.775,669.643 L90.735,671.071 L92.5,672.5 L94.265,673.929 L96.225,675.357 L97.99,676.721 L99.755,678.084 L101.52,679.383 L103.48,680.617 L105.245,681.786 L107.01,682.89 L108.775,683.864 L110.735,684.708 L112.5,685.487 L114.265,686.136 L116.225,686.721 L117.99,687.11 L119.755,687.37 L121.52,687.5 L123.48,687.5 L125.245,687.37 L127.01,687.11 L128.775,686.721 L130.735,686.136 L132.5,685.487 L134.265,684.708 L136.225,683.864 L137.99,682.89 L139.755,681.786 L141.52,680.617 L143.48,679.383 L145.245,678.084 L147.01,676.721 L148.775,675.357 L150.735,673.929 L152.5,672.5"/>
      <path stroke-linejoin="round" stroke-linecap="round" stroke-width="9" stroke="#2B3332" fill-opacity="0" d="M32.5,592.5 L34.265,591.071 L36.225,589.643 L37.99,588.279 L39.755,586.916 L41.52,585.617 L43.48,584.383 L45.245,583.214 L47.01,582.11 L48.775,581.136 L50.735,580.292 L52.5,579.513 L54.265,578.864 L56.225,578.279 L57.99,577.89 L59.755,577.63 L61.52,577.5 L63.48,577.5 L65.245,577.63 L67.01,577.89 L68.775,578.279 L70.735,578.864 L72.5,579.513 L74.265,580.292 L76.225,581.136 L77.99,582.11 L79.755,583.214 L81.52,584.383 L83.48,585.617 L85.245,586.916 L87.01,588.279 L88.775,589.643 L90.735,591.071 L92.5,592.5 L94.265,593.929 L96.225,595.357 L97.99,596.721 L99.755,598.084 L101.52,599.383 L103.48,600.617 L105.245,601.786 L107.01,602.89 L108.775,603.864 L110.735,604.708 L112.5,605.487 L114.265,606.136 L116.225,606.721 L117.99,607.11 L119.755,607.37 L121.52,607.5 L123.48,607.5 L125.245,607.37 L127.01,607.11 L128.775,606.721 L130.735,606.136 L132.5,605.487 L134.265,604.708 L136.225,603.864 L137.99,602.89 L139.755,601.786 L141.52,600.617 L143.48,599.383 L145.245,598.084 L147.01,596.721 L148.775,595.357 L150.735,593.929 L152.5,592.5"/>
    </g>
    <text transform="matrix(1, 0, 0, 1, 390, 632)">
      <tspan fill="#FFFFFF" font-size="49" font-family="SFProText-Medium" y="-0.5" x="-205.08">Applied Mind Inc.</tspan>
      <tspan fill="#FFFFFF" font-size="25.5" font-family="SFProText-Regular" y="35.5" x="-200.819">Software Defined Radio Solutions</tspan>
    </text>
  </g>
</svg>