<?xml version="1.0" encoding="utf-8"?>
<!-- Generator: Adobe Illustrator 15.0.0, SVG Export Plug-In . SVG Version: 6.00 Build 0)  -->
<!DOCTYPE svg PUBLIC "-//W3C//DTD SVG 1.1//EN" "http://www.w3.org/Graphics/SVG/1.1/DTD/svg11.dtd">
<svg version="1.1" id="Layer_1" xmlns="http://www.w3.org/2000/svg" xmlns:xlink="http://www.w3.org/1999/xlink" x="0px" y="0px"
	 width="1218.141px" height="219.963px" viewBox="99.59 31.751 1218.141 219.963"
	 enable-background="new 99.59 31.751 1218.141 219.963" xml:space="preserve">
<g>
	<g>
		
			<radialGradient id="SVGID_1_" cx="1045.6907" cy="204.9473" r="139.9947" gradientTransform="matrix(-0.1908 0.9816 1.4724 0.2862 188.1436 -985.7123)" gradientUnits="userSpaceOnUse">
			<stop  offset="0.1879" style="stop-color:#4EF0E7"/>
			<stop  offset="0.5152" style="stop-color:#2EBCF7"/>
			<stop  offset="0.5441" style="stop-color:#2CB3F5"/>
			<stop  offset="0.6702" style="stop-color:#2293EC"/>
			<stop  offset="0.7912" style="stop-color:#1B7BE5"/>
			<stop  offset="0.9039" style="stop-color:#176DE1"/>
			<stop  offset="1" style="stop-color:#1668E0"/>
		</radialGradient>
		<path fill="url(#SVGID_1_)" d="M255.369,161.879c-7.092,0-13.498,2.871-18.142,7.518l0,0c-15.276,15.273-40.042,15.273-55.317,0
			c0,0,0,0,0-0.008c-15.277-15.272-15.277-40.037,0-55.318l0,0c4.644-4.641,7.513-11.051,7.513-18.137
			c0-14.17-11.485-25.65-25.646-25.65c-14.179,0-25.663,11.48-25.663,25.65c0,7.086,2.873,13.496,7.517,18.137l0,0
			c15.276,15.281,15.284,40.039,0,55.318c-2.319,2.326-4.199,5.088-5.494,8.156c-1.304,3.066-2.021,6.443-2.021,9.99
			c0,3.539,0.718,6.914,2.021,9.984c3.886,9.203,13.013,15.666,23.642,15.666l0,0l0,0c7.077,0,13.491-2.873,18.135-7.513l0,0
			c15.271-15.276,40.033-15.276,55.317,0l0,0c4.644,4.64,11.05,7.513,18.142,7.513c14.164,0,25.649-11.484,25.649-25.65
			C281.019,173.365,269.533,161.879,255.369,161.879z"/>
		
			<radialGradient id="SVGID_2_" cx="1045.6926" cy="204.9492" r="139.9979" gradientTransform="matrix(-0.1908 0.9816 1.4724 0.2862 188.1446 -985.7152)" gradientUnits="userSpaceOnUse">
			<stop  offset="0.1879" style="stop-color:#4EF0E7"/>
			<stop  offset="0.5152" style="stop-color:#2EBCF7"/>
			<stop  offset="0.5441" style="stop-color:#2CB3F5"/>
			<stop  offset="0.6702" style="stop-color:#2293EC"/>
			<stop  offset="0.7912" style="stop-color:#1B7BE5"/>
			<stop  offset="0.9039" style="stop-color:#176DE1"/>
			<stop  offset="1" style="stop-color:#1668E0"/>
		</radialGradient>
		<path fill="url(#SVGID_2_)" d="M255.369,121.586c14.164,0,25.649-11.486,25.649-25.652c0-14.17-11.485-25.65-25.649-25.65
			c-14.168,0-25.653,11.48-25.653,25.65C229.715,110.1,241.201,121.586,255.369,121.586z"/>
		
			<radialGradient id="SVGID_3_" cx="1045.7014" cy="204.9531" r="140.0067" gradientTransform="matrix(-0.1908 0.9816 1.4724 0.2862 188.1485 -985.7299)" gradientUnits="userSpaceOnUse">
			<stop  offset="0.1879" style="stop-color:#4EF0E7"/>
			<stop  offset="0.5152" style="stop-color:#2EBCF7"/>
			<stop  offset="0.5441" style="stop-color:#2CB3F5"/>
			<stop  offset="0.6702" style="stop-color:#2293EC"/>
			<stop  offset="0.7912" style="stop-color:#1B7BE5"/>
			<stop  offset="0.9039" style="stop-color:#176DE1"/>
			<stop  offset="1" style="stop-color:#1668E0"/>
		</radialGradient>
		<path fill="url(#SVGID_3_)" d="M209.561,117.904c-13.155,0-23.822,10.67-23.822,23.828c0,13.161,10.667,23.827,23.822,23.827
			c13.16,0,23.837-10.666,23.837-23.827C233.398,128.574,222.721,117.904,209.561,117.904z"/>
		
			<radialGradient id="SVGID_4_" cx="1045.6868" cy="204.9482" r="139.9923" gradientTransform="matrix(-0.1908 0.9816 1.4724 0.2862 188.1407 -985.7054)" gradientUnits="userSpaceOnUse">
			<stop  offset="0.1879" style="stop-color:#4EF0E7"/>
			<stop  offset="0.5152" style="stop-color:#2EBCF7"/>
			<stop  offset="0.5441" style="stop-color:#2CB3F5"/>
			<stop  offset="0.6702" style="stop-color:#2293EC"/>
			<stop  offset="0.7912" style="stop-color:#1B7BE5"/>
			<stop  offset="0.9039" style="stop-color:#176DE1"/>
			<stop  offset="1" style="stop-color:#1668E0"/>
		</radialGradient>
		<path fill="url(#SVGID_4_)" d="M209.561,70.283c10.644,0,19.271-8.627,19.271-19.266s-8.629-19.266-19.271-19.266
			c-10.635,0-19.256,8.627-19.256,19.266S198.926,70.283,209.561,70.283z"/>
		
			<radialGradient id="SVGID_5_" cx="1045.6858" cy="204.9443" r="139.9873" gradientTransform="matrix(-0.1908 0.9816 1.4724 0.2862 188.1427 -985.7035)" gradientUnits="userSpaceOnUse">
			<stop  offset="0.1879" style="stop-color:#4EF0E7"/>
			<stop  offset="0.5152" style="stop-color:#2EBCF7"/>
			<stop  offset="0.5441" style="stop-color:#2CB3F5"/>
			<stop  offset="0.6702" style="stop-color:#2293EC"/>
			<stop  offset="0.7912" style="stop-color:#1B7BE5"/>
			<stop  offset="0.9039" style="stop-color:#176DE1"/>
			<stop  offset="1" style="stop-color:#1668E0"/>
		</radialGradient>
		<path fill="url(#SVGID_5_)" d="M209.561,213.186c-10.635,0-19.256,8.623-19.256,19.26c0,10.64,8.621,19.269,19.256,19.269
			c10.644,0,19.271-8.629,19.271-19.269C228.833,221.809,220.204,213.186,209.561,213.186z"/>
		
			<radialGradient id="SVGID_6_" cx="1045.6897" cy="204.9492" r="139.9934" gradientTransform="matrix(-0.1908 0.9816 1.4724 0.2862 188.1417 -985.7142)" gradientUnits="userSpaceOnUse">
			<stop  offset="0.1879" style="stop-color:#4EF0E7"/>
			<stop  offset="0.5152" style="stop-color:#2EBCF7"/>
			<stop  offset="0.5441" style="stop-color:#2CB3F5"/>
			<stop  offset="0.6702" style="stop-color:#2293EC"/>
			<stop  offset="0.7912" style="stop-color:#1B7BE5"/>
			<stop  offset="0.9039" style="stop-color:#176DE1"/>
			<stop  offset="1" style="stop-color:#1668E0"/>
		</radialGradient>
		<path fill="url(#SVGID_6_)" d="M300.276,122.469c-10.635,0-19.257,8.625-19.257,19.264s8.622,19.264,19.257,19.264
			c10.643,0,19.271-8.625,19.271-19.264S310.916,122.469,300.276,122.469z"/>
		
			<radialGradient id="SVGID_7_" cx="1045.6624" cy="204.9492" r="139.9714" gradientTransform="matrix(-0.1908 0.9816 1.4724 0.2862 188.1055 -985.6849)" gradientUnits="userSpaceOnUse">
			<stop  offset="0.1879" style="stop-color:#4EF0E7"/>
			<stop  offset="0.5152" style="stop-color:#2EBCF7"/>
			<stop  offset="0.5441" style="stop-color:#2CB3F5"/>
			<stop  offset="0.6702" style="stop-color:#2293EC"/>
			<stop  offset="0.7912" style="stop-color:#1B7BE5"/>
			<stop  offset="0.9039" style="stop-color:#176DE1"/>
			<stop  offset="1" style="stop-color:#1668E0"/>
		</radialGradient>
		<path fill="url(#SVGID_7_)" d="M118.856,122.469c-10.634,0-19.266,8.625-19.266,19.264s8.632,19.264,19.266,19.264
			c10.637,0,19.257-8.625,19.257-19.264S129.492,122.469,118.856,122.469z"/>
	</g>
	<g>
		<g>
			<path fill="#1F55A3" stroke="#1F55A3" stroke-width="2" stroke-miterlimit="10" d="M372.271,133.988V63.633h10.212v58.066h39.323
				v12.289H372.271z"/>
			<path fill="#1F55A3" stroke="#1F55A3" stroke-width="2" stroke-miterlimit="10" d="M439.576,133.988V63.633h52.188v12.291
				h-42.058v45.775h42.138v12.289L439.576,133.988L439.576,133.988z M457.187,103.408V93.053h32.407v10.355H457.187z"/>
			<path fill="#1F55A3" stroke="#1F55A3" stroke-width="2" stroke-miterlimit="10" d="M572.018,133.988l-8.766-17.709H535.59
				l4.823-9.969h17.934L545.32,79.988l-26.536,54h-11.66l33.613-67.355c0.589-1.225,1.286-2.191,2.091-2.902
				c0.805-0.709,1.77-1.064,2.896-1.064s2.077,0.355,2.854,1.064c0.776,0.711,1.46,1.678,2.052,2.902l33.692,67.355H572.018z"/>
			<path fill="#1F55A3" stroke="#1F55A3" stroke-width="2" stroke-miterlimit="10" d="M610.535,82.504v51.484h-9.729V70.117
				c0-2.258,0.469-4.049,1.407-5.371c0.938-1.322,2.211-1.984,3.818-1.984c0.75,0,1.475,0.193,2.171,0.58
				c0.696,0.389,1.42,1.033,2.172,1.936l41.253,49.26V63.053h9.729v64.451c0,2.324-0.47,4.131-1.407,5.42
				c-0.938,1.291-2.159,1.936-3.659,1.936c-1.661,0-3.217-0.871-4.663-2.613L610.535,82.504z"/>
			<path fill="#1F55A3" stroke="#1F55A3" stroke-width="2" stroke-miterlimit="10" d="M733.406,114.439v-11.902h23.481
				c3.591,0,6.393-1.225,8.403-3.678c2.01-2.451,3.015-5.676,3.015-9.678c0-4.064-1.005-7.289-3.015-9.678
				c-2.012-2.387-4.813-3.58-8.403-3.58h-30.96v58.064h-10.132V63.633h41.092c3.377,0,6.393,0.598,9.046,1.791
				c2.654,1.193,4.892,2.871,6.715,5.031c1.822,2.162,3.217,4.791,4.182,7.889c0.966,3.096,1.447,6.58,1.447,10.451
				c0,3.807-0.481,7.275-1.447,10.402c-0.965,3.131-2.358,5.824-4.182,8.082c-1.823,2.258-4.061,4.016-6.715,5.273
				c-2.653,1.258-5.669,1.887-9.046,1.887H733.406z"/>
			<path fill="#1F55A3" stroke="#1F55A3" stroke-width="2" stroke-miterlimit="10" d="M848.48,133.988l-8.766-17.709h-27.662
				l4.823-9.969h17.934l-13.027-26.322l-26.536,54h-11.659l33.612-67.355c0.589-1.225,1.286-2.191,2.091-2.902
				c0.805-0.709,1.77-1.064,2.896-1.064s2.077,0.355,2.854,1.064c0.776,0.711,1.46,1.678,2.052,2.902l33.692,67.355H848.48z"/>
			<path fill="#1F55A3" stroke="#1F55A3" stroke-width="2" stroke-miterlimit="10" d="M887.721,133.988v-26.709l-31.04-43.646
				h13.751l22.758,32.42l22.838-32.42h13.026l-31.12,43.646v26.709H887.721z"/>
			<path fill="#1F55A3" stroke="#1F55A3" stroke-width="2" stroke-miterlimit="10" d="M1007.457,133.988L996.28,84.537
				l-16.564,45.773c-0.59,1.486-1.301,2.631-2.131,3.436c-0.831,0.807-1.863,1.211-3.097,1.211c-2.412,0-4.155-1.549-5.227-4.646
				l-16.485-45.773l-11.178,49.451h-10.052l15.038-66.193c0.694-3.354,2.385-5.033,5.064-5.033c1.072,0,2.077,0.355,3.017,1.064
				c0.938,0.711,1.647,1.742,2.131,3.098l18.013,49.742l18.014-49.742c0.965-2.773,2.601-4.162,4.905-4.162
				c2.465,0,4.101,1.68,4.905,5.033l14.957,66.193L1007.457,133.988L1007.457,133.988z"/>
			<path fill="#1F55A3" stroke="#1F55A3" stroke-width="2" stroke-miterlimit="10" d="M1034.799,133.988V63.633h52.188v12.291
				h-42.057v45.775h42.137v12.289L1034.799,133.988L1034.799,133.988z M1052.409,103.408V93.053h32.407v10.355H1052.409z"/>
			<path fill="#1F55A3" stroke="#1F55A3" stroke-width="2" stroke-miterlimit="10" d="M1115.775,82.504v51.484h-9.729V70.117
				c0-2.258,0.469-4.049,1.406-5.371c0.938-1.322,2.212-1.984,3.819-1.984c0.75,0,1.474,0.193,2.171,0.58
				c0.696,0.389,1.42,1.033,2.172,1.936l41.252,49.26V63.053h9.73v64.451c0,2.324-0.47,4.131-1.407,5.42
				c-0.938,1.291-2.159,1.936-3.659,1.936c-1.662,0-3.217-0.871-4.664-2.613L1115.775,82.504z"/>
			<path fill="#1F55A3" stroke="#1F55A3" stroke-width="2" stroke-miterlimit="10" d="M1205.677,133.988V75.924h-22.194V63.633
				h54.603v12.291h-22.194v58.064L1205.677,133.988L1205.677,133.988z"/>
			<path fill="#1F55A3" stroke="#1F55A3" stroke-width="2" stroke-miterlimit="10" d="M1255.291,133.988v-12.289h43.825
				c2.734,0,4.838-0.838,6.313-2.518c1.475-1.676,2.212-3.902,2.212-6.678c0-3.031-0.737-5.305-2.212-6.822
				c-1.476-1.516-3.578-2.273-6.313-2.273h-26.857c-2.733,0-5.214-0.5-7.438-1.5c-2.224-1-4.101-2.387-5.629-4.162
				c-1.527-1.773-2.707-3.887-3.538-6.338c-0.832-2.451-1.246-5.129-1.246-8.033c0-2.838,0.388-5.467,1.166-7.887
				c0.776-2.42,1.931-4.5,3.458-6.242s3.417-3.111,5.669-4.113c2.252-1,4.825-1.5,7.72-1.5h41.978v12.291h-41.978
				c-2.358,0-4.182,0.758-5.468,2.273c-1.287,1.518-1.931,3.629-1.931,6.34c0,2.709,0.656,4.807,1.971,6.289
				c1.313,1.486,3.096,2.227,5.348,2.227h26.777c5.951,0,10.467,1.678,13.55,5.033c3.082,3.355,4.624,8.451,4.624,15.289
				c0,2.969-0.376,5.711-1.126,8.227c-0.751,2.516-1.877,4.693-3.377,6.533c-1.502,1.838-3.392,3.273-5.669,4.305
				c-2.278,1.033-4.945,1.549-8.002,1.549L1255.291,133.988L1255.291,133.988z"/>
		</g>
		<g>
			<g>
				<path fill="#6E7383" d="M397.108,193.158c1.104,1.703,1.657,3.783,1.657,6.244c0,3.404-1.063,6.072-3.19,8.002
					s-5.054,2.895-8.779,2.895h-12.764c-0.957,0-1.707-0.303-2.251-0.908c-0.545-0.604-0.815-1.455-0.815-2.553v-33.092
					c0-1.098,0.271-1.949,0.815-2.555c0.544-0.604,1.294-0.908,2.251-0.908H386.3c3.628,0,6.472,0.918,8.532,2.754
					c2.062,1.836,3.093,4.398,3.093,7.689c0,2.121-0.486,3.955-1.459,5.506c-0.975,1.553-2.317,2.688-4.032,3.406
					C394.445,190.283,396.003,191.455,397.108,193.158z M377.197,187.141h8.063c4.386,0,6.58-1.873,6.58-5.619
					c0-1.891-0.545-3.291-1.634-4.198c-1.088-0.908-2.737-1.363-4.946-1.363h-8.063V187.141z M391.147,203.205
					c1.056-0.945,1.583-2.422,1.583-4.428s-0.536-3.5-1.607-4.484s-2.744-1.477-5.021-1.477h-8.905v11.807h8.905
					C388.409,204.623,390.091,204.15,391.147,203.205z"/>
				<path fill="#6E7383" d="M418.627,208.994c-1.864-1.172-3.308-2.857-4.329-5.053c-1.022-2.193-1.533-4.748-1.533-7.662
					c0-2.912,0.511-5.457,1.533-7.635c1.021-2.174,2.465-3.851,4.329-5.021c1.861-1.174,4.03-1.76,6.505-1.76
					c2.474,0,4.642,0.586,6.505,1.76c1.863,1.172,3.298,2.848,4.304,5.021c1.006,2.178,1.509,4.723,1.509,7.635
					c0,2.914-0.503,5.469-1.509,7.662c-1.006,2.194-2.439,3.881-4.304,5.053c-1.863,1.174-4.031,1.76-6.505,1.76
					C422.657,210.754,420.49,210.168,418.627,208.994z M429.683,202.977c1.056-1.512,1.583-3.746,1.583-6.696
					c0-2.912-0.527-5.138-1.583-6.669c-1.056-1.532-2.572-2.299-4.551-2.299c-1.979,0-3.505,0.767-4.576,2.299
					c-1.072,1.531-1.607,3.757-1.607,6.669c0,2.95,0.527,5.186,1.583,6.696c1.056,1.515,2.572,2.271,4.552,2.271
					C427.094,205.248,428.627,204.49,429.683,202.977z"/>
				<path fill="#6E7383" d="M467.972,182.6c0.494,0.494,0.741,1.23,0.741,2.215c0,1.021-0.216,1.779-0.644,2.271
					c-0.429,0.492-1.204,0.813-2.325,0.965l-1.483,0.173c-1.946,0.227-3.372,0.983-4.278,2.27c-0.908,1.287-1.36,2.895-1.36,4.824
					v11.92c0,1.098-0.297,1.938-0.891,2.524c-0.594,0.587-1.336,0.882-2.227,0.882c-0.892,0-1.624-0.295-2.201-0.882
					c-0.577-0.586-0.865-1.428-0.865-2.524V185.27c0-1.06,0.288-1.873,0.865-2.439c0.577-0.568,1.294-0.852,2.151-0.852
					c0.856,0,1.551,0.274,2.077,0.821c0.527,0.55,0.792,1.334,0.792,2.355v2.271c0.626-1.666,1.559-2.951,2.795-3.859
					c1.236-0.907,2.613-1.42,4.131-1.532l0.692-0.058C466.8,181.9,467.477,182.109,467.972,182.6z"/>
				<path fill="#6E7383" d="M503.737,170.908c0.594,0.605,0.892,1.4,0.892,2.385v33.941c0,1.021-0.28,1.836-0.842,2.44
					c-0.562,0.605-1.303,0.908-2.226,0.908c-0.924,0-1.666-0.303-2.227-0.908c-0.563-0.604-0.842-1.42-0.842-2.44v-1.42
					c-0.726,1.553-1.772,2.764-3.142,3.633c-1.369,0.871-2.927,1.307-4.675,1.307c-2.077,0-3.934-0.605-5.565-1.816
					s-2.901-2.924-3.809-5.137c-0.907-2.215-1.36-4.758-1.36-7.635c0-2.875,0.453-5.393,1.36-7.549
					c0.905-2.156,2.168-3.822,3.784-4.994c1.614-1.174,3.479-1.76,5.59-1.76c1.748,0,3.298,0.416,4.649,1.248
					c1.353,0.832,2.392,2.006,3.116,3.52v-13.453c0-0.945,0.272-1.711,0.816-2.299c0.544-0.586,1.276-0.879,2.201-0.879
					S503.144,170.303,503.737,170.908z M496.886,202.92c1.07-1.551,1.606-3.764,1.606-6.641c0-2.875-0.536-5.08-1.606-6.611
					c-1.072-1.533-2.581-2.299-4.526-2.299c-1.979,0-3.513,0.756-4.601,2.27c-1.089,1.514-1.634,3.689-1.634,6.527
					c0,2.877,0.545,5.109,1.634,6.697c1.088,1.59,2.604,2.385,4.551,2.385C494.288,205.248,495.814,204.473,496.886,202.92z"/>
				<path fill="#6E7383" d="M541.406,203.432c0.348,0.492,0.521,1.154,0.521,1.986c0,1.174-0.61,2.156-1.83,2.951
					c-1.121,0.719-2.393,1.297-3.81,1.732c-1.419,0.434-2.771,0.651-4.057,0.651c-3.892,0-6.976-1.287-9.251-3.858
					c-2.275-2.574-3.413-6.093-3.413-10.56c0-2.838,0.494-5.354,1.484-7.549c0.988-2.193,2.382-3.896,4.18-5.106
					c1.797-1.212,3.834-1.816,6.109-1.816c2.177,0,4.071,0.549,5.688,1.645c1.616,1.1,2.869,2.65,3.76,4.654
					c0.892,2.008,1.336,4.371,1.336,7.096c0,1.627-0.627,2.441-1.88,2.441h-14.593c0.197,2.611,0.841,4.531,1.929,5.76
					c1.089,1.23,2.673,1.846,4.749,1.846c1.057,0,1.986-0.149,2.795-0.455c0.809-0.301,1.724-0.717,2.746-1.248
					c0.989-0.604,1.714-0.908,2.177-0.908C540.607,202.693,541.061,202.939,541.406,203.432z M527.457,188.674
					c-1.007,1.211-1.607,2.951-1.806,5.223h11.18c-0.065-2.309-0.562-4.059-1.483-5.252c-0.924-1.19-2.21-1.787-3.858-1.787
					C529.807,186.857,528.462,187.463,527.457,188.674z"/>
				<path fill="#6E7383" d="M572.597,182.6c0.494,0.494,0.741,1.23,0.741,2.215c0,1.021-0.216,1.779-0.644,2.271
					c-0.429,0.492-1.204,0.813-2.325,0.965l-1.483,0.173c-1.946,0.227-3.372,0.983-4.278,2.27c-0.908,1.287-1.36,2.895-1.36,4.824
					v11.92c0,1.098-0.297,1.938-0.891,2.524c-0.594,0.587-1.336,0.882-2.227,0.882c-0.892,0-1.624-0.295-2.201-0.882
					c-0.577-0.586-0.865-1.428-0.865-2.524V185.27c0-1.06,0.288-1.873,0.865-2.439c0.577-0.568,1.294-0.852,2.151-0.852
					c0.856,0,1.551,0.274,2.077,0.821c0.527,0.55,0.792,1.334,0.792,2.355v2.271c0.626-1.666,1.559-2.951,2.795-3.859
					c1.236-0.907,2.613-1.42,4.131-1.532l0.692-0.058C571.425,181.9,572.102,182.109,572.597,182.6z"/>
				<path fill="#6E7383" d="M586.77,209.76c-0.577-0.586-0.865-1.428-0.865-2.525V173.35c0-1.098,0.288-1.932,0.865-2.498
					c0.577-0.567,1.311-0.852,2.201-0.852c0.89,0,1.633,0.283,2.227,0.852c0.594,0.566,0.892,1.4,0.892,2.498v33.885
					c0,1.099-0.298,1.939-0.892,2.525s-1.336,0.881-2.227,0.881C588.079,210.641,587.347,210.346,586.77,209.76z"/>
				<path fill="#6E7383" d="M628.866,203.432c0.348,0.492,0.521,1.154,0.521,1.986c0,1.174-0.61,2.156-1.83,2.951
					c-1.121,0.719-2.393,1.297-3.81,1.732c-1.419,0.434-2.771,0.651-4.057,0.651c-3.892,0-6.976-1.287-9.251-3.858
					c-2.275-2.574-3.413-6.093-3.413-10.56c0-2.838,0.494-5.354,1.484-7.549c0.989-2.193,2.382-3.896,4.18-5.106
					c1.797-1.212,3.834-1.816,6.109-1.816c2.177,0,4.071,0.549,5.688,1.645c1.616,1.1,2.869,2.65,3.76,4.654
					c0.892,2.008,1.337,4.371,1.337,7.096c0,1.627-0.628,2.441-1.881,2.441h-14.593c0.197,2.611,0.841,4.531,1.929,5.76
					c1.09,1.23,2.673,1.846,4.749,1.846c1.057,0,1.986-0.149,2.796-0.455c0.808-0.301,1.723-0.717,2.745-1.248
					c0.989-0.604,1.714-0.908,2.177-0.908C628.067,202.693,628.521,202.939,628.866,203.432z M614.916,188.674
					c-1.007,1.211-1.607,2.951-1.806,5.223h11.18c-0.065-2.309-0.562-4.059-1.483-5.252c-0.924-1.19-2.21-1.787-3.858-1.787
					C617.267,186.857,615.922,187.463,614.916,188.674z"/>
				<path fill="#6E7383" d="M644.573,208.313c-1.056-0.719-1.583-1.739-1.583-3.063c0-0.758,0.183-1.371,0.545-1.847
					c0.362-0.473,0.809-0.709,1.335-0.709c0.562,0,1.336,0.304,2.325,0.908c1.056,0.568,2.021,1.004,2.895,1.306
					c0.874,0.305,1.986,0.454,3.34,0.454c1.385,0,2.465-0.264,3.24-0.795c0.773-0.528,1.161-1.268,1.161-2.213
					c0-0.643-0.156-1.153-0.47-1.532c-0.313-0.378-0.874-0.729-1.682-1.052c-0.81-0.319-2.037-0.688-3.687-1.104
					c-2.936-0.683-5.038-1.646-6.308-2.896c-1.271-1.25-1.904-2.971-1.904-5.166c0-1.664,0.429-3.168,1.286-4.512
					s2.036-2.385,3.537-3.123c1.5-0.736,3.207-1.104,5.12-1.104c1.385,0,2.721,0.196,4.007,0.596
					c1.286,0.396,2.439,0.976,3.463,1.729c1.056,0.759,1.583,1.761,1.583,3.009c0,0.758-0.182,1.391-0.545,1.901
					c-0.362,0.512-0.808,0.767-1.335,0.767c-0.363,0-0.718-0.084-1.063-0.255c-0.348-0.172-0.784-0.426-1.313-0.768
					c-0.957-0.566-1.78-0.992-2.474-1.277c-0.692-0.282-1.55-0.426-2.572-0.426c-1.22,0-2.185,0.285-2.894,0.853
					c-0.711,0.567-1.063,1.344-1.063,2.328c0,0.944,0.362,1.666,1.088,2.155c0.727,0.492,2.127,0.984,4.205,1.478
					c2.209,0.528,3.94,1.135,5.194,1.815c1.253,0.681,2.15,1.531,2.695,2.554c0.545,1.021,0.815,2.327,0.815,3.918
					c0,2.571-0.932,4.635-2.795,6.186c-1.863,1.554-4.345,2.328-7.444,2.328C649.684,210.754,646.781,209.939,644.573,208.313z"/>
				<path fill="#6E7383" d="M678.457,208.313c-1.056-0.719-1.582-1.739-1.582-3.063c0-0.758,0.182-1.371,0.545-1.847
					c0.361-0.473,0.808-0.709,1.335-0.709c0.561,0,1.336,0.304,2.324,0.908c1.056,0.568,2.021,1.004,2.895,1.306
					c0.874,0.305,1.987,0.454,3.34,0.454c1.385,0,2.465-0.264,3.24-0.795c0.773-0.528,1.162-1.268,1.162-2.213
					c0-0.643-0.157-1.153-0.471-1.532c-0.313-0.378-0.874-0.729-1.682-1.052c-0.809-0.319-2.037-0.688-3.686-1.104
					c-2.937-0.683-5.038-1.646-6.309-2.896c-1.27-1.25-1.903-2.971-1.903-5.166c0-1.664,0.428-3.168,1.285-4.512
					s2.036-2.385,3.537-3.123c1.5-0.736,3.207-1.104,5.12-1.104c1.385,0,2.722,0.196,4.007,0.596
					c1.286,0.396,2.439,0.976,3.463,1.729c1.056,0.759,1.584,1.761,1.584,3.009c0,0.758-0.183,1.391-0.546,1.901
					c-0.362,0.512-0.808,0.767-1.335,0.767c-0.362,0-0.718-0.084-1.063-0.255c-0.347-0.172-0.784-0.426-1.313-0.768
					c-0.957-0.566-1.779-0.992-2.474-1.277c-0.692-0.282-1.55-0.426-2.572-0.426c-1.22,0-2.185,0.285-2.894,0.853
					c-0.71,0.567-1.063,1.344-1.063,2.328c0,0.944,0.362,1.666,1.088,2.155c0.727,0.492,2.128,0.984,4.205,1.478
					c2.209,0.528,3.94,1.135,5.194,1.815c1.253,0.681,2.151,1.531,2.696,2.554c0.544,1.021,0.814,2.327,0.814,3.918
					c0,2.571-0.932,4.635-2.795,6.186c-1.862,1.554-4.345,2.328-7.443,2.328C683.57,210.754,680.666,209.939,678.457,208.313z"/>
				<path fill="#6E7383" d="M737.003,209.646c-0.577-0.662-0.865-1.562-0.865-2.695v-33.205c0-1.098,0.271-1.949,0.815-2.555
					c0.544-0.604,1.294-0.908,2.251-0.908h12.169c3.728,0,6.63,1.07,8.706,3.207c2.078,2.139,3.117,5.137,3.117,8.996
					c0,3.861-1.039,6.869-3.117,9.024c-2.077,2.156-4.979,3.236-8.706,3.236h-8.854v12.203c0,1.135-0.289,2.032-0.865,2.694
					c-0.577,0.662-1.359,0.994-2.35,0.994C738.347,210.641,737.58,210.309,737.003,209.646z M750.582,189.129
					c4.387,0,6.58-2.195,6.58-6.586c0-4.389-2.193-6.584-6.58-6.584h-8.063v13.17H750.582z"/>
				<path fill="#6E7383" d="M796.117,184.729c1.633,1.912,2.448,4.816,2.448,8.713v13.851c0,1.021-0.264,1.826-0.791,2.412
					c-0.528,0.588-1.254,0.881-2.177,0.881c-0.857,0-1.56-0.303-2.104-0.908c-0.544-0.604-0.815-1.399-0.815-2.385v-1.248
					c-0.562,1.476-1.442,2.629-2.646,3.461s-2.597,1.25-4.18,1.25c-1.616,0-3.084-0.379-4.402-1.135
					c-1.319-0.759-2.357-1.797-3.116-3.123c-0.76-1.324-1.139-2.799-1.139-4.429c0-2.043,0.453-3.649,1.36-4.823
					c0.907-1.172,2.383-2.022,4.428-2.556c2.044-0.528,4.864-0.793,8.459-0.793h1.236v-1.307c0-1.854-0.347-3.207-1.038-4.059
					c-0.693-0.852-1.814-1.277-3.364-1.277c-0.957,0-1.93,0.162-2.919,0.484c-0.989,0.32-2.16,0.785-3.512,1.391
					c-0.858,0.492-1.484,0.736-1.88,0.736c-0.595,0-1.081-0.244-1.459-0.736c-0.381-0.492-0.569-1.137-0.569-1.932
					c0-0.643,0.14-1.199,0.421-1.674c0.279-0.474,0.749-0.916,1.409-1.334c1.154-0.719,2.531-1.285,4.131-1.703
					c1.6-0.416,3.174-0.623,4.725-0.623C791.987,181.863,794.485,182.818,796.117,184.729z M791.121,203.744
					c1.039-1.268,1.559-2.904,1.559-4.91v-1.191h-0.891c-2.21,0-3.926,0.113-5.146,0.34c-1.22,0.228-2.095,0.625-2.621,1.191
					c-0.528,0.568-0.792,1.344-0.792,2.328c0,1.211,0.371,2.205,1.113,2.98c0.742,0.774,1.656,1.162,2.745,1.162
					C788.739,205.645,790.082,205.012,791.121,203.744z"/>
				<path fill="#6E7383" d="M832.674,182.516c0.444-0.32,0.932-0.481,1.46-0.481c0.758,0,1.441,0.293,2.053,0.879
					c0.609,0.588,0.915,1.315,0.915,2.187c0,0.418-0.099,0.852-0.297,1.307L823.3,218.869c-0.563,1.287-1.436,1.932-2.622,1.932
					c-0.759,0-1.428-0.275-2.003-0.824c-0.577-0.549-0.866-1.24-0.866-2.071c0-0.416,0.1-0.89,0.297-1.419l3.364-8.116
					l-9.201-21.965c-0.166-0.38-0.247-0.814-0.247-1.308c0-0.869,0.321-1.606,0.964-2.213c0.645-0.604,1.377-0.908,2.202-0.908
					c0.56,0,1.071,0.16,1.533,0.482c0.461,0.322,0.824,0.822,1.088,1.504l6.926,17.539l6.876-17.482
					C831.875,183.338,832.229,182.838,832.674,182.516z"/>
				<path fill="#6E7383" d="M885.457,184.559c1.401,1.799,2.104,4.703,2.104,8.713v13.963c0,1.099-0.289,1.939-0.866,2.525
					s-1.327,0.881-2.25,0.881c-0.891,0-1.625-0.295-2.202-0.881s-0.864-1.428-0.864-2.525v-13.963c0-2.08-0.321-3.565-0.966-4.455
					c-0.643-0.889-1.625-1.334-2.942-1.334c-1.616,0-2.902,0.634-3.858,1.9c-0.957,1.27-1.435,3-1.435,5.193v12.658
					c0,1.098-0.289,1.938-0.866,2.524s-1.311,0.882-2.201,0.882c-0.89,0-1.632-0.296-2.226-0.882
					c-0.595-0.586-0.892-1.428-0.892-2.524v-13.963c0-2.08-0.32-3.566-0.965-4.455c-0.643-0.89-1.625-1.334-2.943-1.334
					c-1.615,0-2.894,0.633-3.834,1.899c-0.938,1.271-1.408,3-1.408,5.193v12.657c0,1.099-0.297,1.939-0.892,2.525
					c-0.594,0.586-1.336,0.881-2.227,0.881c-0.892,0-1.624-0.295-2.201-0.881s-0.865-1.428-0.865-2.525v-21.967
					c0-1.059,0.297-1.873,0.891-2.438c0.594-0.568,1.336-0.853,2.227-0.853c0.857,0,1.56,0.275,2.104,0.822
					c0.544,0.549,0.815,1.334,0.815,2.355v1.363c0.758-1.515,1.772-2.668,3.042-3.464c1.271-0.795,2.729-1.19,4.378-1.19
					c3.628,0,6.053,1.74,7.271,5.221c0.726-1.588,1.798-2.855,3.216-3.803c1.418-0.945,3.018-1.418,4.799-1.418
					C882.035,181.863,884.055,182.762,885.457,184.559z"/>
				<path fill="#6E7383" d="M924.239,203.432c0.348,0.492,0.521,1.154,0.521,1.986c0,1.174-0.61,2.156-1.83,2.951
					c-1.121,0.719-2.393,1.297-3.81,1.732c-1.419,0.434-2.771,0.651-4.057,0.651c-3.892,0-6.976-1.287-9.251-3.858
					c-2.275-2.574-3.413-6.093-3.413-10.56c0-2.838,0.494-5.354,1.484-7.549c0.988-2.193,2.382-3.896,4.18-5.106
					c1.797-1.212,3.834-1.816,6.109-1.816c2.177,0,4.071,0.549,5.688,1.645c1.616,1.1,2.869,2.65,3.76,4.654
					c0.892,2.008,1.336,4.371,1.336,7.096c0,1.627-0.627,2.441-1.88,2.441h-14.593c0.197,2.611,0.841,4.531,1.929,5.76
					c1.089,1.23,2.673,1.846,4.749,1.846c1.057,0,1.986-0.149,2.795-0.455c0.809-0.301,1.724-0.717,2.746-1.248
					c0.989-0.604,1.714-0.908,2.177-0.908C923.439,202.693,923.893,202.939,924.239,203.432z M910.289,188.674
					c-1.007,1.211-1.607,2.951-1.806,5.223h11.18c-0.065-2.309-0.562-4.059-1.483-5.252c-0.924-1.19-2.21-1.787-3.858-1.787
					C912.639,186.857,911.294,187.463,910.289,188.674z"/>
				<path fill="#6E7383" d="M960.425,184.701c1.417,1.893,2.127,4.748,2.127,8.57v13.963c0,1.061-0.272,1.893-0.816,2.498
					c-0.544,0.604-1.295,0.908-2.251,0.908c-0.957,0-1.715-0.306-2.274-0.908c-0.562-0.605-0.842-1.438-0.842-2.498v-13.566
					c0-2.156-0.354-3.727-1.063-4.711c-0.71-0.982-1.822-1.475-3.339-1.475c-1.781,0-3.208,0.643-4.279,1.93
					c-1.072,1.287-1.607,3.008-1.607,5.164v12.658c0,1.061-0.28,1.893-0.842,2.498c-0.561,0.604-1.318,0.908-2.274,0.908
					c-0.957,0-1.706-0.306-2.251-0.908c-0.544-0.605-0.815-1.438-0.815-2.498v-21.967c0-0.982,0.279-1.777,0.841-2.384
					c0.562-0.604,1.318-0.907,2.275-0.907c0.857,0,1.559,0.293,2.103,0.879c0.544,0.588,0.816,1.354,0.816,2.299v1.533
					c0.823-1.552,1.929-2.744,3.314-3.576c1.385-0.832,2.95-1.248,4.698-1.248C956.846,181.863,959.006,182.809,960.425,184.701z"/>
				<path fill="#6E7383" d="M993.767,207.916c0,0.908-0.321,1.598-0.965,2.07s-1.559,0.672-2.745,0.598l-1.336-0.115
					c-5.54-0.453-8.312-3.859-8.312-10.217v-12.373h-2.474c-0.891,0-1.575-0.227-2.053-0.682c-0.479-0.453-0.719-1.115-0.719-1.986
					c0-0.869,0.24-1.531,0.719-1.986c0.478-0.453,1.162-0.682,2.053-0.682h2.474v-5.221c0-1.021,0.279-1.836,0.842-2.441
					c0.561-0.604,1.317-0.908,2.274-0.908c0.923,0,1.665,0.305,2.228,0.908c0.561,0.605,0.841,1.42,0.841,2.441v5.221h4.205
					c0.89,0,1.574,0.229,2.053,0.682c0.479,0.455,0.717,1.117,0.717,1.986c0,0.871-0.239,1.533-0.717,1.986
					c-0.479,0.455-1.163,0.682-2.053,0.682h-4.205v12.885c0,2.801,1.121,4.295,3.364,4.484l1.335,0.113
					C992.942,205.475,993.767,206.326,993.767,207.916z"/>
				<path fill="#6E7383" d="M1035.591,209.646c-2.26-0.775-4.099-1.824-5.517-3.15c-0.759-0.643-1.138-1.551-1.138-2.725
					c0-0.795,0.206-1.484,0.618-2.07c0.412-0.588,0.897-0.881,1.46-0.881c0.594,0,1.269,0.266,2.028,0.795
					c1.416,1.174,2.9,2.025,4.451,2.555s3.266,0.795,5.146,0.795c2.407,0,4.254-0.482,5.54-1.449c1.286-0.965,1.93-2.373,1.93-4.229
					c0-1.438-0.603-2.543-1.806-3.32c-1.204-0.775-3.208-1.521-6.011-2.242c-2.902-0.717-5.262-1.551-7.073-2.496
					c-1.814-0.944-3.185-2.158-4.106-3.633c-0.924-1.477-1.385-3.35-1.385-5.619c0-2.346,0.576-4.444,1.731-6.301
					c1.152-1.854,2.762-3.301,4.822-4.342c2.062-1.041,4.378-1.561,6.95-1.561c4.716,0,8.559,1.438,11.526,4.313
					c0.428,0.418,0.732,0.824,0.915,1.221c0.181,0.398,0.271,0.9,0.271,1.504c0,0.795-0.206,1.486-0.618,2.072
					c-0.412,0.588-0.897,0.879-1.459,0.879c-0.33,0-0.636-0.057-0.915-0.17c-0.28-0.113-0.651-0.32-1.112-0.623
					c-1.354-1.137-2.664-1.979-3.934-2.527c-1.271-0.547-2.828-0.821-4.675-0.821c-2.243,0-4.016,0.521-5.318,1.562
					s-1.954,2.487-1.954,4.342c0,1.553,0.577,2.744,1.731,3.576c1.154,0.834,3.117,1.608,5.887,2.327
					c2.937,0.757,5.318,1.599,7.148,2.525s3.23,2.108,4.205,3.547c0.973,1.438,1.459,3.235,1.459,5.394
					c0,2.346-0.568,4.418-1.706,6.215c-1.139,1.799-2.738,3.199-4.799,4.201c-2.063,1.002-4.429,1.504-7.1,1.504
					C1040.25,210.811,1037.85,210.422,1035.591,209.646z"/>
				<path fill="#6E7383" d="M1076.156,208.994c-1.864-1.172-3.307-2.857-4.329-5.053c-1.021-2.193-1.532-4.748-1.532-7.662
					c0-2.912,0.511-5.457,1.532-7.635c1.022-2.174,2.465-3.851,4.329-5.021c1.862-1.174,4.031-1.76,6.505-1.76
					c2.475,0,4.643,0.586,6.506,1.76c1.862,1.172,3.298,2.848,4.304,5.021c1.006,2.178,1.509,4.723,1.509,7.635
					c0,2.914-0.503,5.469-1.509,7.662c-1.006,2.194-2.44,3.881-4.304,5.053c-1.863,1.174-4.031,1.76-6.506,1.76
					C1080.187,210.754,1078.018,210.168,1076.156,208.994z M1087.211,202.977c1.056-1.512,1.583-3.746,1.583-6.696
					c0-2.912-0.527-5.138-1.583-6.669c-1.057-1.532-2.572-2.299-4.552-2.299c-1.979,0-3.505,0.767-4.575,2.299
					c-1.072,1.531-1.607,3.757-1.607,6.669c0,2.95,0.527,5.186,1.583,6.696c1.055,1.515,2.572,2.271,4.551,2.271
					C1084.623,205.248,1086.156,204.49,1087.211,202.977z"/>
				<path fill="#6E7383" d="M1110.832,209.76c-0.576-0.586-0.864-1.428-0.864-2.525V173.35c0-1.098,0.288-1.932,0.864-2.498
					c0.577-0.567,1.312-0.852,2.201-0.852c0.891,0,1.634,0.283,2.228,0.852c0.594,0.566,0.891,1.4,0.891,2.498v33.885
					c0,1.099-0.297,1.939-0.891,2.525s-1.336,0.881-2.228,0.881C1112.143,210.641,1111.409,210.346,1110.832,209.76z"/>
				<path fill="#6E7383" d="M1153.796,182.885c0.561,0.605,0.841,1.418,0.841,2.439v22.023c0,0.983-0.289,1.778-0.865,2.385
					c-0.578,0.604-1.328,0.908-2.251,0.908c-0.891,0-1.601-0.285-2.127-0.853c-0.528-0.568-0.792-1.345-0.792-2.328v-1.418
					c-0.759,1.515-1.781,2.678-3.067,3.49c-1.286,0.812-2.736,1.221-4.353,1.221c-5.938,0-8.904-3.821-8.904-11.467v-13.963
					c0-1.021,0.279-1.834,0.841-2.439c0.562-0.604,1.302-0.907,2.227-0.907c0.956,0,1.715,0.303,2.274,0.907
					c0.561,0.605,0.842,1.418,0.842,2.439v14.02c0,1.97,0.347,3.427,1.038,4.371c0.693,0.947,1.781,1.42,3.267,1.42
					c1.714,0,3.092-0.651,4.13-1.959c1.039-1.305,1.559-3.036,1.559-5.192v-12.658c0-1.021,0.28-1.834,0.841-2.439
					c0.562-0.604,1.304-0.908,2.228-0.908C1152.477,181.977,1153.235,182.279,1153.796,182.885z"/>
				<path fill="#6E7383" d="M1186,207.916c0,0.908-0.321,1.598-0.966,2.07c-0.643,0.473-1.558,0.672-2.745,0.598l-1.336-0.115
					c-5.54-0.453-8.311-3.859-8.311-10.217v-12.373h-2.475c-0.891,0-1.574-0.227-2.053-0.682c-0.478-0.453-0.718-1.115-0.718-1.986
					c0-0.869,0.24-1.531,0.718-1.986c0.479-0.453,1.162-0.682,2.053-0.682h2.475v-5.221c0-1.021,0.279-1.836,0.841-2.441
					c0.562-0.604,1.318-0.908,2.275-0.908c0.923,0,1.665,0.305,2.227,0.908c0.562,0.605,0.841,1.42,0.841,2.441v5.221h4.205
					c0.891,0,1.574,0.229,2.053,0.682c0.479,0.455,0.718,1.117,0.718,1.986c0,0.871-0.239,1.533-0.718,1.986
					c-0.479,0.455-1.162,0.682-2.053,0.682h-4.205v12.885c0,2.801,1.121,4.295,3.364,4.484l1.335,0.113
					C1185.174,205.475,1186,206.326,1186,207.916z"/>
				<path fill="#6E7383" d="M1199.504,175.875c-0.66-0.699-0.989-1.617-0.989-2.754c0-1.135,0.329-2.043,0.989-2.725
					c0.658-0.681,1.55-1.021,2.671-1.021c1.089,0,1.971,0.342,2.646,1.021c0.676,0.682,1.016,1.59,1.016,2.725
					c0,1.137-0.33,2.055-0.989,2.754c-0.66,0.699-1.551,1.049-2.672,1.049S1200.163,176.574,1199.504,175.875z M1199.974,209.76
					c-0.577-0.586-0.865-1.428-0.865-2.525v-21.909c0-1.097,0.288-1.931,0.865-2.496c0.577-0.568,1.311-0.853,2.201-0.853
					c0.89,0,1.633,0.283,2.227,0.853c0.595,0.565,0.892,1.399,0.892,2.496v21.909c0,1.099-0.297,1.939-0.892,2.525
					c-0.594,0.586-1.336,0.881-2.227,0.881C1201.283,210.641,1200.551,210.346,1199.974,209.76z"/>
				<path fill="#6E7383" d="M1226.093,208.994c-1.864-1.172-3.308-2.857-4.329-5.053c-1.022-2.193-1.533-4.748-1.533-7.662
					c0-2.912,0.511-5.457,1.533-7.635c1.021-2.174,2.465-3.851,4.329-5.021c1.862-1.174,4.03-1.76,6.505-1.76
					c2.474,0,4.642,0.586,6.505,1.76c1.863,1.172,3.298,2.848,4.304,5.021c1.006,2.178,1.51,4.723,1.51,7.635
					c0,2.914-0.504,5.469-1.51,7.662c-1.006,2.194-2.439,3.881-4.304,5.053c-1.863,1.174-4.031,1.76-6.505,1.76
					C1230.123,210.754,1227.955,210.168,1226.093,208.994z M1237.149,202.977c1.057-1.512,1.583-3.746,1.583-6.696
					c0-2.912-0.526-5.138-1.583-6.669c-1.056-1.532-2.572-2.299-4.551-2.299c-1.979,0-3.505,0.767-4.576,2.299
					c-1.072,1.531-1.607,3.757-1.607,6.669c0,2.95,0.527,5.186,1.583,6.696c1.056,1.515,2.572,2.271,4.552,2.271
					C1234.56,205.248,1236.093,204.49,1237.149,202.977z"/>
				<path fill="#6E7383" d="M1280.434,184.701c1.417,1.893,2.127,4.748,2.127,8.57v13.963c0,1.061-0.272,1.893-0.816,2.498
					c-0.544,0.604-1.295,0.908-2.251,0.908c-0.957,0-1.715-0.306-2.274-0.908c-0.562-0.605-0.842-1.438-0.842-2.498v-13.566
					c0-2.156-0.354-3.727-1.063-4.711c-0.71-0.982-1.822-1.475-3.339-1.475c-1.781,0-3.208,0.643-4.279,1.93
					c-1.072,1.287-1.606,3.008-1.606,5.164v12.658c0,1.061-0.281,1.893-0.843,2.498c-0.561,0.604-1.318,0.908-2.274,0.908
					c-0.957,0-1.706-0.306-2.251-0.908c-0.544-0.605-0.815-1.438-0.815-2.498v-21.967c0-0.982,0.279-1.777,0.841-2.384
					c0.562-0.604,1.318-0.907,2.275-0.907c0.856,0,1.559,0.293,2.103,0.879c0.544,0.588,0.816,1.354,0.816,2.299v1.533
					c0.823-1.552,1.929-2.744,3.314-3.576c1.385-0.832,2.95-1.248,4.698-1.248C1276.855,181.863,1279.015,182.809,1280.434,184.701z
					"/>
				<path fill="#6E7383" d="M1298.786,208.313c-1.056-0.719-1.583-1.739-1.583-3.063c0-0.758,0.183-1.371,0.545-1.847
					c0.362-0.473,0.809-0.709,1.336-0.709c0.561,0,1.336,0.304,2.324,0.908c1.056,0.568,2.021,1.004,2.895,1.306
					c0.874,0.305,1.986,0.454,3.34,0.454c1.385,0,2.465-0.264,3.24-0.795c0.773-0.528,1.162-1.268,1.162-2.213
					c0-0.643-0.157-1.153-0.471-1.532c-0.313-0.378-0.874-0.729-1.682-1.052c-0.809-0.319-2.037-0.688-3.687-1.104
					c-2.936-0.683-5.038-1.646-6.308-2.896s-1.904-2.971-1.904-5.166c0-1.664,0.428-3.168,1.286-4.512
					c0.857-1.344,2.036-2.385,3.537-3.123c1.5-0.736,3.207-1.104,5.12-1.104c1.385,0,2.721,0.196,4.007,0.596
					c1.286,0.396,2.438,0.976,3.463,1.729c1.056,0.759,1.583,1.761,1.583,3.009c0,0.758-0.182,1.391-0.545,1.901
					c-0.363,0.512-0.808,0.767-1.335,0.767c-0.363,0-0.718-0.084-1.063-0.255c-0.347-0.172-0.783-0.426-1.312-0.768
					c-0.957-0.566-1.78-0.992-2.474-1.277c-0.692-0.282-1.551-0.426-2.572-0.426c-1.22,0-2.186,0.285-2.895,0.853
					c-0.71,0.567-1.063,1.344-1.063,2.328c0,0.944,0.362,1.666,1.088,2.155c0.726,0.492,2.127,0.984,4.205,1.478
					c2.209,0.528,3.939,1.135,5.193,1.815s2.151,1.531,2.696,2.554c0.544,1.021,0.815,2.327,0.815,3.918
					c0,2.571-0.933,4.635-2.795,6.186c-1.863,1.554-4.346,2.328-7.444,2.328C1303.898,210.754,1300.995,209.939,1298.786,208.313z"
					/>
			</g>
		</g>
	</g>
</g>
</svg>
